<?xml version="1.0" encoding="UTF-8" standalone="no"?><svg xmlns="http://www.w3.org/2000/svg" xmlns:xlink="http://www.w3.org/1999/xlink" clip-rule="evenodd" stroke-miterlimit="10" viewBox="0 0 1280 720"><desc>SVG generated by Keynote</desc><defs></defs><g transform="matrix(1.00, 0.00, -0.00, -1.00, 0.0, 720.0)"><g><clipPath id="clip0x600000cadc20"><path d="M 0.0 720.0 L 1280.0 720.0 L 1280.0 0.0 L 0.0 0.0 Z M 0.0 720.0 "></path></clipPath><g clip-path="url(#clip0x600000cadc20)"><image xlink:href="../../3320ECCF-2517-408F-AC31-6DE14F9E30F9/assets/7D0D479F0D8AC86C9E875656D9072873.jpeg" width="2048.00" height="1536.00" transform="matrix(0.62, 0.00, -0.00, -0.62, 0.0, 840.0)"></image></g></g><image xlink:href="../../5F5FCF2C-B0DC-4B0F-A2BB-4A2AF0646840/assets/E0DAC7DFA5F54947305C64EF37B93227.png" width="386.00" height="70.00" transform="matrix(1.00, 0.00, -0.00, -1.00, 80.0, 636.0)"></image><text xml:space="preserve" font-family="HelveticaNeue-Light,Helvetica Neue" font-size="66.0" fill="#FFFFFF" transform="matrix(1.00, 0.00, -0.00, -1.00, 82.0, 586.0)">S</text><text xml:space="preserve" font-family="HelveticaNeue-Light,Helvetica Neue" font-size="66.0" fill="#FFFFFF" transform="matrix(1.00, 0.00, -0.00, -1.00, 123.6, 586.0)">y</text><text xml:space="preserve" font-family="HelveticaNeue-Light,Helvetica Neue" font-size="66.0" fill="#FFFFFF" transform="matrix(1.00, 0.00, -0.00, -1.00, 154.1, 586.0)">n</text><text xml:space="preserve" font-family="HelveticaNeue-Light,Helvetica Neue" font-size="66.0" fill="#FFFFFF" transform="matrix(1.00, 0.00, -0.00, -1.00, 189.6, 586.0)">c</text><text xml:space="preserve" font-family="HelveticaNeue-Light,Helvetica Neue" font-size="66.0" fill="#FFFFFF" transform="matrix(1.00, 0.00, -0.00, -1.00, 223.8, 586.0)">h</text><text xml:space="preserve" font-family="HelveticaNeue-Light,Helvetica Neue" font-size="66.0" fill="#FFFFFF" transform="matrix(1.00, 0.00, -0.00, -1.00, 259.3, 586.0)">r</text><text xml:space="preserve" font-family="HelveticaNeue-Light,Helvetica Neue" font-size="66.0" fill="#FFFFFF" transform="matrix(1.00, 0.00, -0.00, -1.00, 278.9, 586.0)">o</text><text xml:space="preserve" font-family="HelveticaNeue-Light,Helvetica Neue" font-size="66.0" fill="#FFFFFF" transform="matrix(1.00, 0.00, -0.00, -1.00, 315.6, 586.0)">n</text><text xml:space="preserve" font-family="HelveticaNeue-Light,Helvetica Neue" font-size="66.0" fill="#FFFFFF" transform="matrix(1.00, 0.00, -0.00, -1.00, 351.0, 586.0)">i</text><text xml:space="preserve" font-family="HelveticaNeue-Light,Helvetica Neue" font-size="66.0" fill="#FFFFFF" transform="matrix(1.00, 0.00, -0.00, -1.00, 363.2, 586.0)">z</text><text xml:space="preserve" font-family="HelveticaNeue-Light,Helvetica Neue" font-size="66.0" fill="#FFFFFF" transform="matrix(1.00, 0.00, -0.00, -1.00, 393.8, 586.0)">e</text><text xml:space="preserve" font-family="HelveticaNeue-Light,Helvetica Neue" font-size="66.0" fill="#FFFFFF" transform="matrix(1.00, 0.00, -0.00, -1.00, 428.0, 586.0)">d</text><image xlink:href="../../5F5FCF2C-B0DC-4B0F-A2BB-4A2AF0646840/assets/65790FFA8C0247AF65A4D117A5A48B98.png" width="12.00" height="12.00" transform="matrix(1.00, 0.00, -0.00, -1.00, 82.0, 371.0)"></image><g><clipPath id="clip0x6080008adda0"><path d="M 82.0 359.2 L 93.3 359.2 L 93.3 370.5 L 82.0 370.5 Z M 82.0 359.2 "></path></clipPath><g clip-path="url(#clip0x6080008adda0)"><g><g><clipPath id="clip0x6080008aea60"><path d="M 82.0 370.5 L 93.3 370.5 L 93.3 359.2 L 82.0 359.2 Z M 82.0 370.5 "></path></clipPath><g clip-path="url(#clip0x6080008aea60)"><g><clipPath id="clip0x6080008ae4c0"><path d="M 78.0 352.0 L 98.0 352.0 L 98.0 378.0 L 78.0 378.0 Z M 78.0 352.0 "></path></clipPath><g clip-path="url(#clip0x6080008ae4c0)"><path d="M 93.3 368.3 C 93.3 368.8 93.0 369.3 92.6 369.8 C 92.1 370.3 91.6 370.5 91.0 370.5 C 90.8 370.5 90.4 370.4 89.8 370.1 C 88.9 369.7 88.2 369.5 87.6 369.5 C 87.0 369.5 86.2 369.7 85.4 370.1 C 84.9 370.4 84.5 370.5 84.2 370.5 C 83.7 370.5 83.2 370.3 82.7 369.8 C 82.2 369.3 82.0 368.8 82.0 368.3 C 82.0 368.0 82.1 367.6 82.4 367.0 C 82.8 366.2 83.0 365.5 83.0 364.9 C 83.0 364.3 82.8 363.5 82.4 362.7 C 82.1 362.1 82.0 361.7 82.0 361.5 C 82.0 360.9 82.2 360.4 82.7 359.9 C 83.2 359.5 83.7 359.2 84.2 359.2 C 84.5 359.2 84.9 359.3 85.4 359.6 C 86.2 360.0 87.0 360.2 87.6 360.2 C 88.2 360.2 88.9 360.0 89.8 359.6 C 90.4 359.3 90.8 359.2 91.0 359.2 C 91.6 359.2 92.1 359.5 92.6 359.9 C 93.0 360.4 93.3 360.9 93.3 361.5 C 93.3 361.7 93.1 362.1 92.9 362.7 C 92.5 363.5 92.3 364.3 92.3 364.9 C 92.3 365.5 92.5 366.2 92.9 367.0 C 93.1 367.6 93.3 368.0 93.3 368.3 " fill="#FFFFFF"></path></g></g></g></g></g></g></g><image xlink:href="../../5F5FCF2C-B0DC-4B0F-A2BB-4A2AF0646840/assets/64B068DD5763BF6C1AE24B81C380FA65.png" width="162.00" height="31.00" transform="matrix(1.00, 0.00, -0.00, -1.00, 110.0, 378.0)"></image><text xml:space="preserve" font-family="HelveticaNeue-Bold,Helvetica Neue" font-weight="bold" font-size="32.0" fill="#FFFFFF" transform="matrix(1.00, 0.00, -0.00, -1.00, 114.0, 354.7)">s</text><text xml:space="preserve" font-family="HelveticaNeue-Bold,Helvetica Neue" font-weight="bold" font-size="32.0" fill="#FFFFFF" transform="matrix(1.00, 0.00, -0.00, -1.00, 131.2, 354.7)">t</text><text xml:space="preserve" font-family="HelveticaNeue-Bold,Helvetica Neue" font-weight="bold" font-size="32.0" fill="#FFFFFF" transform="matrix(1.00, 0.00, -0.00, -1.00, 142.4, 354.7)">a</text><text xml:space="preserve" font-family="HelveticaNeue-Bold,Helvetica Neue" font-weight="bold" font-size="32.0" fill="#FFFFFF" transform="matrix(1.00, 0.00, -0.00, -1.00, 160.8, 354.7)">t</text><text xml:space="preserve" font-family="HelveticaNeue-Bold,Helvetica Neue" font-weight="bold" font-size="32.0" fill="#FFFFFF" transform="matrix(1.00, 0.00, -0.00, -1.00, 172.1, 354.7)">e</text><text xml:space="preserve" font-family="HelveticaNeue-Bold,Helvetica Neue" font-weight="bold" font-size="32.0" fill="#FFFFFF" transform="matrix(1.00, 0.00, -0.00, -1.00, 190.4, 354.7)">m</text><text xml:space="preserve" font-family="HelveticaNeue-Bold,Helvetica Neue" font-weight="bold" font-size="32.0" fill="#FFFFFF" transform="matrix(1.00, 0.00, -0.00, -1.00, 219.4, 354.7)">e</text><text xml:space="preserve" font-family="HelveticaNeue-Bold,Helvetica Neue" font-weight="bold" font-size="32.0" fill="#FFFFFF" transform="matrix(1.00, 0.00, -0.00, -1.00, 237.8, 354.7)">n</text><text xml:space="preserve" font-family="HelveticaNeue-Bold,Helvetica Neue" font-weight="bold" font-size="32.0" fill="#FFFFFF" transform="matrix(1.00, 0.00, -0.00, -1.00, 256.8, 354.7)">t</text><image xlink:href="../../5F5FCF2C-B0DC-4B0F-A2BB-4A2AF0646840/assets/D697EDB7C67A44A81A5A79F3440BF735.png" width="476.00" height="38.00" transform="matrix(1.00, 0.00, -0.00, -1.00, 267.0, 379.0)"></image><text xml:space="preserve" font-family="HelveticaNeue-Light,Helvetica Neue" font-size="32.0" fill="#FFFFFF" transform="matrix(1.00, 0.00, -0.00, -1.00, 268.0, 354.7)">:</text><text xml:space="preserve" font-family="HelveticaNeue-Light,Helvetica Neue" font-size="32.0" fill="#FFFFFF" transform="matrix(1.00, 0.00, -0.00, -1.00, 276.9, 354.7)"> </text><text xml:space="preserve" font-family="HelveticaNeue-Light,Helvetica Neue" font-size="32.0" fill="#FFFFFF" transform="matrix(1.00, 0.00, -0.00, -1.00, 285.8, 354.7)">l</text><text xml:space="preserve" font-family="HelveticaNeue-Light,Helvetica Neue" font-size="32.0" fill="#FFFFFF" transform="matrix(1.00, 0.00, -0.00, -1.00, 291.8, 354.7)">o</text><text xml:space="preserve" font-family="HelveticaNeue-Light,Helvetica Neue" font-size="32.0" fill="#FFFFFF" transform="matrix(1.00, 0.00, -0.00, -1.00, 309.6, 354.7)">c</text><text xml:space="preserve" font-family="HelveticaNeue-Light,Helvetica Neue" font-size="32.0" fill="#FFFFFF" transform="matrix(1.00, 0.00, -0.00, -1.00, 326.2, 354.7)">k</text><text xml:space="preserve" font-family="HelveticaNeue-Light,Helvetica Neue" font-size="32.0" fill="#FFFFFF" transform="matrix(1.00, 0.00, -0.00, -1.00, 342.2, 354.7)"> </text><text xml:space="preserve" font-family="HelveticaNeue-Light,Helvetica Neue" font-size="32.0" fill="#FFFFFF" transform="matrix(1.00, 0.00, -0.00, -1.00, 351.1, 354.7)">o</text><text xml:space="preserve" font-family="HelveticaNeue-Light,Helvetica Neue" font-size="32.0" fill="#FFFFFF" transform="matrix(1.00, 0.00, -0.00, -1.00, 368.8, 354.7)">n</text><text xml:space="preserve" font-family="HelveticaNeue-Light,Helvetica Neue" font-size="32.0" fill="#FFFFFF" transform="matrix(1.00, 0.00, -0.00, -1.00, 386.0, 354.7)"> </text><text xml:space="preserve" font-family="HelveticaNeue-Light,Helvetica Neue" font-size="32.0" fill="#FFFFFF" transform="matrix(1.00, 0.00, -0.00, -1.00, 394.9, 354.7)">o</text><text xml:space="preserve" font-family="HelveticaNeue-Light,Helvetica Neue" font-size="32.0" fill="#FFFFFF" transform="matrix(1.00, 0.00, -0.00, -1.00, 412.7, 354.7)">b</text><text xml:space="preserve" font-family="HelveticaNeue-Light,Helvetica Neue" font-size="32.0" fill="#FFFFFF" transform="matrix(1.00, 0.00, -0.00, -1.00, 431.1, 354.7)">j</text><text xml:space="preserve" font-family="HelveticaNeue-Light,Helvetica Neue" font-size="32.0" fill="#FFFFFF" transform="matrix(1.00, 0.00, -0.00, -1.00, 437.0, 354.7)">e</text><text xml:space="preserve" font-family="HelveticaNeue-Light,Helvetica Neue" font-size="32.0" fill="#FFFFFF" transform="matrix(1.00, 0.00, -0.00, -1.00, 453.6, 354.7)">c</text><text xml:space="preserve" font-family="HelveticaNeue-Light,Helvetica Neue" font-size="32.0" fill="#FFFFFF" transform="matrix(1.00, 0.00, -0.00, -1.00, 470.2, 354.7)">t</text><text xml:space="preserve" font-family="HelveticaNeue-Light,Helvetica Neue" font-size="32.0" fill="#FFFFFF" transform="matrix(1.00, 0.00, -0.00, -1.00, 479.7, 354.7)"> </text><text xml:space="preserve" font-family="HelveticaNeue-Light,Helvetica Neue" font-size="32.0" fill="#FFFFFF" transform="matrix(1.00, 0.00, -0.00, -1.00, 488.6, 354.7)">g</text><text xml:space="preserve" font-family="HelveticaNeue-Light,Helvetica Neue" font-size="32.0" fill="#FFFFFF" transform="matrix(1.00, 0.00, -0.00, -1.00, 506.4, 354.7)">i</text><text xml:space="preserve" font-family="HelveticaNeue-Light,Helvetica Neue" font-size="32.0" fill="#FFFFFF" transform="matrix(1.00, 0.00, -0.00, -1.00, 512.3, 354.7)">v</text><text xml:space="preserve" font-family="HelveticaNeue-Light,Helvetica Neue" font-size="32.0" fill="#FFFFFF" transform="matrix(1.00, 0.00, -0.00, -1.00, 527.1, 354.7)">e</text><text xml:space="preserve" font-family="HelveticaNeue-Light,Helvetica Neue" font-size="32.0" fill="#FFFFFF" transform="matrix(1.00, 0.00, -0.00, -1.00, 543.7, 354.7)">n</text><text xml:space="preserve" font-family="HelveticaNeue-Light,Helvetica Neue" font-size="32.0" fill="#FFFFFF" transform="matrix(1.00, 0.00, -0.00, -1.00, 560.9, 354.7)"> </text><text xml:space="preserve" font-family="HelveticaNeue-Light,Helvetica Neue" font-size="32.0" fill="#FFFFFF" transform="matrix(1.00, 0.00, -0.00, -1.00, 569.8, 354.7)">i</text><text xml:space="preserve" font-family="HelveticaNeue-Light,Helvetica Neue" font-size="32.0" fill="#FFFFFF" transform="matrix(1.00, 0.00, -0.00, -1.00, 575.7, 354.7)">n</text><text xml:space="preserve" font-family="HelveticaNeue-Light,Helvetica Neue" font-size="32.0" fill="#FFFFFF" transform="matrix(1.00, 0.00, -0.00, -1.00, 592.9, 354.7)"> </text><text xml:space="preserve" font-family="HelveticaNeue-Light,Helvetica Neue" font-size="32.0" fill="#FFFFFF" transform="matrix(1.00, 0.00, -0.00, -1.00, 601.8, 354.7)">s</text><text xml:space="preserve" font-family="HelveticaNeue-Light,Helvetica Neue" font-size="32.0" fill="#FFFFFF" transform="matrix(1.00, 0.00, -0.00, -1.00, 617.2, 354.7)">t</text><text xml:space="preserve" font-family="HelveticaNeue-Light,Helvetica Neue" font-size="32.0" fill="#FFFFFF" transform="matrix(1.00, 0.00, -0.00, -1.00, 626.7, 354.7)">a</text><text xml:space="preserve" font-family="HelveticaNeue-Light,Helvetica Neue" font-size="32.0" fill="#FFFFFF" transform="matrix(1.00, 0.00, -0.00, -1.00, 643.3, 354.7)">t</text><text xml:space="preserve" font-family="HelveticaNeue-Light,Helvetica Neue" font-size="32.0" fill="#FFFFFF" transform="matrix(1.00, 0.00, -0.00, -1.00, 652.8, 354.7)">e</text><text xml:space="preserve" font-family="HelveticaNeue-Light,Helvetica Neue" font-size="32.0" fill="#FFFFFF" transform="matrix(1.00, 0.00, -0.00, -1.00, 669.4, 354.7)">m</text><text xml:space="preserve" font-family="HelveticaNeue-Light,Helvetica Neue" font-size="32.0" fill="#FFFFFF" transform="matrix(1.00, 0.00, -0.00, -1.00, 696.0, 354.7)">e</text><text xml:space="preserve" font-family="HelveticaNeue-Light,Helvetica Neue" font-size="32.0" fill="#FFFFFF" transform="matrix(1.00, 0.00, -0.00, -1.00, 712.6, 354.7)">n</text><text xml:space="preserve" font-family="HelveticaNeue-Light,Helvetica Neue" font-size="32.0" fill="#FFFFFF" transform="matrix(1.00, 0.00, -0.00, -1.00, 729.8, 354.7)">t</text><text xml:space="preserve" font-family="HelveticaNeue-Light,Helvetica Neue" font-size="32.0" fill="#FFFFFF" transform="matrix(1.00, 0.00, -0.00, -1.00, 739.3, 354.7)"> </text><image xlink:href="../../5F5FCF2C-B0DC-4B0F-A2BB-4A2AF0646840/assets/A3E2888D6FC0A9560D01202A62A9F6A2.png" width="12.00" height="12.00" transform="matrix(1.00, 0.00, -0.00, -1.00, 82.0, 309.0)"></image><g><clipPath id="clip0x6080008af600"><path d="M 82.0 297.1 L 93.3 297.1 L 93.3 308.4 L 82.0 308.4 Z M 82.0 297.1 "></path></clipPath><g clip-path="url(#clip0x6080008af600)"><g><g><clipPath id="clip0x6080008af9c0"><path d="M 82.0 308.4 L 93.3 308.4 L 93.3 297.1 L 82.0 297.1 Z M 82.0 308.4 "></path></clipPath><g clip-path="url(#clip0x6080008af9c0)"><g><clipPath id="clip0x6080008afb40"><path d="M 78.0 290.0 L 98.0 290.0 L 98.0 316.0 L 78.0 316.0 Z M 78.0 290.0 "></path></clipPath><g clip-path="url(#clip0x6080008afb40)"><path d="M 93.3 306.1 C 93.3 306.6 93.0 307.1 92.6 307.6 C 92.1 308.2 91.6 308.4 91.0 308.4 C 90.8 308.4 90.4 308.3 89.8 308.0 C 88.9 307.6 88.2 307.4 87.6 307.4 C 87.0 307.4 86.2 307.6 85.4 308.0 C 84.9 308.3 84.5 308.4 84.2 308.4 C 83.7 308.4 83.2 308.2 82.7 307.7 C 82.2 307.2 82.0 306.7 82.0 306.1 C 82.0 305.9 82.1 305.5 82.4 304.9 C 82.8 304.1 83.0 303.3 83.0 302.7 C 83.0 302.1 82.8 301.4 82.4 300.5 C 82.1 300.0 82.0 299.6 82.0 299.3 C 82.0 298.8 82.2 298.3 82.7 297.8 C 83.2 297.3 83.7 297.1 84.2 297.1 C 84.5 297.1 84.9 297.2 85.4 297.5 C 86.2 297.9 87.0 298.1 87.6 298.1 C 88.2 298.1 88.9 297.9 89.8 297.5 C 90.4 297.2 90.8 297.1 91.0 297.1 C 91.6 297.1 92.1 297.3 92.6 297.8 C 93.0 298.3 93.3 298.8 93.3 299.3 C 93.3 299.6 93.1 300.0 92.9 300.5 C 92.5 301.4 92.3 302.1 92.3 302.7 C 92.3 303.3 92.5 304.1 92.9 304.9 C 93.1 305.5 93.3 305.9 93.3 306.1 " fill="#FFFFFF"></path></g></g></g></g></g></g></g><image xlink:href="../../5F5FCF2C-B0DC-4B0F-A2BB-4A2AF0646840/assets/C86FACBD1ADAFEA1081FA4E4744D6BD5.png" width="123.00" height="32.00" transform="matrix(1.00, 0.00, -0.00, -1.00, 111.0, 317.0)"></image><text xml:space="preserve" font-family="HelveticaNeue-Bold,Helvetica Neue" font-weight="bold" font-size="32.0" fill="#FFFFFF" transform="matrix(1.00, 0.00, -0.00, -1.00, 114.0, 292.6)">m</text><text xml:space="preserve" font-family="HelveticaNeue-Bold,Helvetica Neue" font-weight="bold" font-size="32.0" fill="#FFFFFF" transform="matrix(1.00, 0.00, -0.00, -1.00, 143.0, 292.6)">e</text><text xml:space="preserve" font-family="HelveticaNeue-Bold,Helvetica Neue" font-weight="bold" font-size="32.0" fill="#FFFFFF" transform="matrix(1.00, 0.00, -0.00, -1.00, 161.4, 292.6)">t</text><text xml:space="preserve" font-family="HelveticaNeue-Bold,Helvetica Neue" font-weight="bold" font-size="32.0" fill="#FFFFFF" transform="matrix(1.00, 0.00, -0.00, -1.00, 172.6, 292.6)">h</text><text xml:space="preserve" font-family="HelveticaNeue-Bold,Helvetica Neue" font-weight="bold" font-size="32.0" fill="#FFFFFF" transform="matrix(1.00, 0.00, -0.00, -1.00, 191.6, 292.6)">o</text><text xml:space="preserve" font-family="HelveticaNeue-Bold,Helvetica Neue" font-weight="bold" font-size="32.0" fill="#FFFFFF" transform="matrix(1.00, 0.00, -0.00, -1.00, 211.2, 292.6)">d</text><image xlink:href="../../5F5FCF2C-B0DC-4B0F-A2BB-4A2AF0646840/assets/CEE936E02E8EEE7BA8A0A132403E58BF.png" width="341.00" height="38.00" transform="matrix(1.00, 0.00, -0.00, -1.00, 229.0, 317.0)"></image><text xml:space="preserve" font-family="HelveticaNeue-Light,Helvetica Neue" font-size="32.0" fill="#FFFFFF" transform="matrix(1.00, 0.00, -0.00, -1.00, 230.7, 292.6)">:</text><text xml:space="preserve" font-family="HelveticaNeue-Light,Helvetica Neue" font-size="32.0" fill="#FFFFFF" transform="matrix(1.00, 0.00, -0.00, -1.00, 239.6, 292.6)"> </text><text xml:space="preserve" font-family="HelveticaNeue-Light,Helvetica Neue" font-size="32.0" fill="#FFFFFF" transform="matrix(1.00, 0.00, -0.00, -1.00, 248.5, 292.6)">l</text><text xml:space="preserve" font-family="HelveticaNeue-Light,Helvetica Neue" font-size="32.0" fill="#FFFFFF" transform="matrix(1.00, 0.00, -0.00, -1.00, 254.4, 292.6)">o</text><text xml:space="preserve" font-family="HelveticaNeue-Light,Helvetica Neue" font-size="32.0" fill="#FFFFFF" transform="matrix(1.00, 0.00, -0.00, -1.00, 272.2, 292.6)">c</text><text xml:space="preserve" font-family="HelveticaNeue-Light,Helvetica Neue" font-size="32.0" fill="#FFFFFF" transform="matrix(1.00, 0.00, -0.00, -1.00, 288.8, 292.6)">k</text><text xml:space="preserve" font-family="HelveticaNeue-Light,Helvetica Neue" font-size="32.0" fill="#FFFFFF" transform="matrix(1.00, 0.00, -0.00, -1.00, 304.8, 292.6)"> </text><text xml:space="preserve" font-family="HelveticaNeue-Light,Helvetica Neue" font-size="32.0" fill="#FFFFFF" transform="matrix(1.00, 0.00, -0.00, -1.00, 313.7, 292.6)">o</text><text xml:space="preserve" font-family="HelveticaNeue-Light,Helvetica Neue" font-size="32.0" fill="#FFFFFF" transform="matrix(1.00, 0.00, -0.00, -1.00, 331.5, 292.6)">n</text><text xml:space="preserve" font-family="HelveticaNeue-Light,Helvetica Neue" font-size="32.0" fill="#FFFFFF" transform="matrix(1.00, 0.00, -0.00, -1.00, 348.7, 292.6)"> </text><text xml:space="preserve" font-family="HelveticaNeue-Light,Helvetica Neue" font-size="32.0" fill="#FFFFFF" transform="matrix(1.00, 0.00, -0.00, -1.00, 357.6, 292.6)">o</text><text xml:space="preserve" font-family="HelveticaNeue-Light,Helvetica Neue" font-size="32.0" fill="#FFFFFF" transform="matrix(1.00, 0.00, -0.00, -1.00, 375.4, 292.6)">b</text><text xml:space="preserve" font-family="HelveticaNeue-Light,Helvetica Neue" font-size="32.0" fill="#FFFFFF" transform="matrix(1.00, 0.00, -0.00, -1.00, 393.7, 292.6)">j</text><text xml:space="preserve" font-family="HelveticaNeue-Light,Helvetica Neue" font-size="32.0" fill="#FFFFFF" transform="matrix(1.00, 0.00, -0.00, -1.00, 399.7, 292.6)">e</text><text xml:space="preserve" font-family="HelveticaNeue-Light,Helvetica Neue" font-size="32.0" fill="#FFFFFF" transform="matrix(1.00, 0.00, -0.00, -1.00, 416.3, 292.6)">c</text><text xml:space="preserve" font-family="HelveticaNeue-Light,Helvetica Neue" font-size="32.0" fill="#FFFFFF" transform="matrix(1.00, 0.00, -0.00, -1.00, 432.9, 292.6)">t</text><text xml:space="preserve" font-family="HelveticaNeue-Light,Helvetica Neue" font-size="32.0" fill="#FFFFFF" transform="matrix(1.00, 0.00, -0.00, -1.00, 442.4, 292.6)"> </text><text xml:space="preserve" font-family="HelveticaNeue-Light,Helvetica Neue" font-size="32.0" fill="#FFFFFF" transform="matrix(1.00, 0.00, -0.00, -1.00, 451.2, 292.6)">i</text><text xml:space="preserve" font-family="HelveticaNeue-Light,Helvetica Neue" font-size="32.0" fill="#FFFFFF" transform="matrix(1.00, 0.00, -0.00, -1.00, 457.2, 292.6)">n</text><text xml:space="preserve" font-family="HelveticaNeue-Light,Helvetica Neue" font-size="32.0" fill="#FFFFFF" transform="matrix(1.00, 0.00, -0.00, -1.00, 474.4, 292.6)">s</text><text xml:space="preserve" font-family="HelveticaNeue-Light,Helvetica Neue" font-size="32.0" fill="#FFFFFF" transform="matrix(1.00, 0.00, -0.00, -1.00, 489.7, 292.6)">t</text><text xml:space="preserve" font-family="HelveticaNeue-Light,Helvetica Neue" font-size="32.0" fill="#FFFFFF" transform="matrix(1.00, 0.00, -0.00, -1.00, 499.2, 292.6)">a</text><text xml:space="preserve" font-family="HelveticaNeue-Light,Helvetica Neue" font-size="32.0" fill="#FFFFFF" transform="matrix(1.00, 0.00, -0.00, -1.00, 515.8, 292.6)">n</text><text xml:space="preserve" font-family="HelveticaNeue-Light,Helvetica Neue" font-size="32.0" fill="#FFFFFF" transform="matrix(1.00, 0.00, -0.00, -1.00, 533.0, 292.6)">c</text><text xml:space="preserve" font-family="HelveticaNeue-Light,Helvetica Neue" font-size="32.0" fill="#FFFFFF" transform="matrix(1.00, 0.00, -0.00, -1.00, 549.6, 292.6)">e</text><text xml:space="preserve" font-family="HelveticaNeue-Light,Helvetica Neue" font-size="32.0" fill="#FFFFFF" transform="matrix(1.00, 0.00, -0.00, -1.00, 566.2, 292.6)"> </text><image xlink:href="../../5F5FCF2C-B0DC-4B0F-A2BB-4A2AF0646840/assets/0656C41CD2B0B1BFA81139A6F6D73F74.png" width="12.00" height="13.00" transform="matrix(1.00, 0.00, -0.00, -1.00, 82.0, 247.0)"></image><g><clipPath id="clip0x6080008aff60"><path d="M 82.0 235.0 L 93.3 235.0 L 93.3 246.3 L 82.0 246.3 Z M 82.0 235.0 "></path></clipPath><g clip-path="url(#clip0x6080008aff60)"><g><g><clipPath id="clip0x6080008b0320"><path d="M 82.0 246.3 L 93.3 246.3 L 93.3 235.0 L 82.0 235.0 Z M 82.0 246.3 "></path></clipPath><g clip-path="url(#clip0x6080008b0320)"><g><clipPath id="clip0x6080008b04a0"><path d="M 78.0 227.0 L 98.0 227.0 L 98.0 254.0 L 78.0 254.0 Z M 78.0 227.0 "></path></clipPath><g clip-path="url(#clip0x6080008b04a0)"><path d="M 93.3 244.0 C 93.3 244.5 93.0 245.0 92.6 245.5 C 92.1 246.0 91.6 246.3 91.0 246.3 C 90.8 246.3 90.4 246.1 89.8 245.9 C 88.9 245.5 88.2 245.3 87.6 245.3 C 87.0 245.3 86.2 245.5 85.4 245.9 C 84.9 246.1 84.5 246.3 84.2 246.3 C 83.7 246.3 83.2 246.0 82.7 245.5 C 82.2 245.1 82.0 244.5 82.0 244.0 C 82.0 243.8 82.1 243.3 82.4 242.8 C 82.8 241.9 83.0 241.2 83.0 240.6 C 83.0 240.0 82.8 239.3 82.4 238.4 C 82.1 237.9 82.0 237.5 82.0 237.2 C 82.0 236.7 82.2 236.2 82.7 235.7 C 83.2 235.2 83.7 235.0 84.2 235.0 C 84.5 235.0 84.9 235.1 85.4 235.3 C 86.2 235.8 87.0 236.0 87.6 236.0 C 88.2 236.0 88.9 235.8 89.8 235.3 C 90.4 235.1 90.8 235.0 91.0 235.0 C 91.6 235.0 92.1 235.2 92.6 235.7 C 93.0 236.2 93.3 236.7 93.3 237.2 C 93.3 237.5 93.1 237.9 92.9 238.4 C 92.5 239.3 92.3 240.0 92.3 240.6 C 92.3 241.2 92.5 241.9 92.9 242.8 C 93.1 243.3 93.3 243.8 93.3 244.0 " fill="#FFFFFF"></path></g></g></g></g></g></g></g><image xlink:href="../../5F5FCF2C-B0DC-4B0F-A2BB-4A2AF0646840/assets/6D2FBB6A6ACBC2F713B9DDE839B71F47.png" width="217.00" height="32.00" transform="matrix(1.00, 0.00, -0.00, -1.00, 110.0, 255.0)"></image><text xml:space="preserve" font-family="HelveticaNeue-Bold,Helvetica Neue" font-weight="bold" font-size="32.0" fill="#FFFFFF" transform="matrix(1.00, 0.00, -0.00, -1.00, 114.0, 230.5)">s</text><text xml:space="preserve" font-family="HelveticaNeue-Bold,Helvetica Neue" font-weight="bold" font-size="32.0" fill="#FFFFFF" transform="matrix(1.00, 0.00, -0.00, -1.00, 131.2, 230.5)">t</text><text xml:space="preserve" font-family="HelveticaNeue-Bold,Helvetica Neue" font-weight="bold" font-size="32.0" fill="#FFFFFF" transform="matrix(1.00, 0.00, -0.00, -1.00, 142.4, 230.5)">a</text><text xml:space="preserve" font-family="HelveticaNeue-Bold,Helvetica Neue" font-weight="bold" font-size="32.0" fill="#FFFFFF" transform="matrix(1.00, 0.00, -0.00, -1.00, 160.8, 230.5)">t</text><text xml:space="preserve" font-family="HelveticaNeue-Bold,Helvetica Neue" font-weight="bold" font-size="32.0" fill="#FFFFFF" transform="matrix(1.00, 0.00, -0.00, -1.00, 172.1, 230.5)">i</text><text xml:space="preserve" font-family="HelveticaNeue-Bold,Helvetica Neue" font-weight="bold" font-size="32.0" fill="#FFFFFF" transform="matrix(1.00, 0.00, -0.00, -1.00, 180.3, 230.5)">c</text><text xml:space="preserve" font-family="HelveticaNeue-Bold,Helvetica Neue" font-weight="bold" font-size="32.0" fill="#FFFFFF" transform="matrix(1.00, 0.00, -0.00, -1.00, 198.7, 230.5)"> </text><text xml:space="preserve" font-family="HelveticaNeue-Bold,Helvetica Neue" font-weight="bold" font-size="32.0" fill="#FFFFFF" transform="matrix(1.00, 0.00, -0.00, -1.00, 207.6, 230.5)">m</text><text xml:space="preserve" font-family="HelveticaNeue-Bold,Helvetica Neue" font-weight="bold" font-size="32.0" fill="#FFFFFF" transform="matrix(1.00, 0.00, -0.00, -1.00, 236.6, 230.5)">e</text><text xml:space="preserve" font-family="HelveticaNeue-Bold,Helvetica Neue" font-weight="bold" font-size="32.0" fill="#FFFFFF" transform="matrix(1.00, 0.00, -0.00, -1.00, 255.0, 230.5)">t</text><text xml:space="preserve" font-family="HelveticaNeue-Bold,Helvetica Neue" font-weight="bold" font-size="32.0" fill="#FFFFFF" transform="matrix(1.00, 0.00, -0.00, -1.00, 266.2, 230.5)">h</text><text xml:space="preserve" font-family="HelveticaNeue-Bold,Helvetica Neue" font-weight="bold" font-size="32.0" fill="#FFFFFF" transform="matrix(1.00, 0.00, -0.00, -1.00, 285.2, 230.5)">o</text><text xml:space="preserve" font-family="HelveticaNeue-Bold,Helvetica Neue" font-weight="bold" font-size="32.0" fill="#FFFFFF" transform="matrix(1.00, 0.00, -0.00, -1.00, 304.8, 230.5)">d</text><image xlink:href="../../5F5FCF2C-B0DC-4B0F-A2BB-4A2AF0646840/assets/F27F3264BBEB9E1ECA23B46B463CAEFA.png" width="202.00" height="32.00" transform="matrix(1.00, 0.00, -0.00, -1.00, 323.0, 255.0)"></image><text xml:space="preserve" font-family="HelveticaNeue-Light,Helvetica Neue" font-size="32.0" fill="#FFFFFF" transform="matrix(1.00, 0.00, -0.00, -1.00, 324.3, 230.5)">:</text><text xml:space="preserve" font-family="HelveticaNeue-Light,Helvetica Neue" font-size="32.0" fill="#FFFFFF" transform="matrix(1.00, 0.00, -0.00, -1.00, 333.2, 230.5)"> </text><text xml:space="preserve" font-family="HelveticaNeue-Light,Helvetica Neue" font-size="32.0" fill="#FFFFFF" transform="matrix(1.00, 0.00, -0.00, -1.00, 342.1, 230.5)">l</text><text xml:space="preserve" font-family="HelveticaNeue-Light,Helvetica Neue" font-size="32.0" fill="#FFFFFF" transform="matrix(1.00, 0.00, -0.00, -1.00, 348.0, 230.5)">o</text><text xml:space="preserve" font-family="HelveticaNeue-Light,Helvetica Neue" font-size="32.0" fill="#FFFFFF" transform="matrix(1.00, 0.00, -0.00, -1.00, 365.8, 230.5)">c</text><text xml:space="preserve" font-family="HelveticaNeue-Light,Helvetica Neue" font-size="32.0" fill="#FFFFFF" transform="matrix(1.00, 0.00, -0.00, -1.00, 382.4, 230.5)">k</text><text xml:space="preserve" font-family="HelveticaNeue-Light,Helvetica Neue" font-size="32.0" fill="#FFFFFF" transform="matrix(1.00, 0.00, -0.00, -1.00, 398.4, 230.5)"> </text><text xml:space="preserve" font-family="HelveticaNeue-Light,Helvetica Neue" font-size="32.0" fill="#FFFFFF" transform="matrix(1.00, 0.00, -0.00, -1.00, 407.3, 230.5)">o</text><text xml:space="preserve" font-family="HelveticaNeue-Light,Helvetica Neue" font-size="32.0" fill="#FFFFFF" transform="matrix(1.00, 0.00, -0.00, -1.00, 425.1, 230.5)">n</text><text xml:space="preserve" font-family="HelveticaNeue-Light,Helvetica Neue" font-size="32.0" fill="#FFFFFF" transform="matrix(1.00, 0.00, -0.00, -1.00, 442.3, 230.5)"> </text><text xml:space="preserve" font-family="HelveticaNeue-Light,Helvetica Neue" font-size="32.0" fill="#FFFFFF" transform="matrix(1.00, 0.00, -0.00, -1.00, 451.2, 230.5)">c</text><text xml:space="preserve" font-family="HelveticaNeue-Light,Helvetica Neue" font-size="32.0" fill="#FFFFFF" transform="matrix(1.00, 0.00, -0.00, -1.00, 467.8, 230.5)">l</text><text xml:space="preserve" font-family="HelveticaNeue-Light,Helvetica Neue" font-size="32.0" fill="#FFFFFF" transform="matrix(1.00, 0.00, -0.00, -1.00, 473.7, 230.5)">a</text><text xml:space="preserve" font-family="HelveticaNeue-Light,Helvetica Neue" font-size="32.0" fill="#FFFFFF" transform="matrix(1.00, 0.00, -0.00, -1.00, 490.3, 230.5)">s</text><text xml:space="preserve" font-family="HelveticaNeue-Light,Helvetica Neue" font-size="32.0" fill="#FFFFFF" transform="matrix(1.00, 0.00, -0.00, -1.00, 505.7, 230.5)">s</text></g></svg>