<?xml version="1.0" encoding="UTF-8" standalone="no"?><svg xmlns="http://www.w3.org/2000/svg" xmlns:xlink="http://www.w3.org/1999/xlink" clip-rule="evenodd" stroke-miterlimit="10" viewBox="0 0 1280 720"><desc>SVG generated by Keynote</desc><defs></defs><g transform="matrix(1.00, 0.00, -0.00, -1.00, 0.0, 720.0)"><g><clipPath id="clip0x600000ca4e00"><path d="M 0.0 720.0 L 1280.0 720.0 L 1280.0 0.0 L 0.0 0.0 Z M 0.0 720.0 "></path></clipPath><g clip-path="url(#clip0x600000ca4e00)"><image xlink:href="../../3320ECCF-2517-408F-AC31-6DE14F9E30F9/assets/7D0D479F0D8AC86C9E875656D9072873.jpeg" width="2048.00" height="1536.00" transform="matrix(0.62, 0.00, -0.00, -0.62, 0.0, 840.0)"></image></g></g><image xlink:href="../../3320ECCF-2517-408F-AC31-6DE14F9E30F9/assets/302DFE7E9A014BE66325CE0BB14F0F8A.png" width="273.00" height="57.00" transform="matrix(1.00, 0.00, -0.00, -1.00, 82.0, 635.0)"></image><text xml:space="preserve" font-family="HelveticaNeue-Light,Helvetica Neue" font-size="66.0" fill="#FFFFFF" transform="matrix(1.00, 0.00, -0.00, -1.00, 82.0, 586.0)">P</text><text xml:space="preserve" font-family="HelveticaNeue-Light,Helvetica Neue" font-size="66.0" fill="#FFFFFF" transform="matrix(1.00, 0.00, -0.00, -1.00, 123.6, 586.0)">r</text><text xml:space="preserve" font-family="HelveticaNeue-Light,Helvetica Neue" font-size="66.0" fill="#FFFFFF" transform="matrix(1.00, 0.00, -0.00, -1.00, 144.4, 586.0)">i</text><text xml:space="preserve" font-family="HelveticaNeue-Light,Helvetica Neue" font-size="66.0" fill="#FFFFFF" transform="matrix(1.00, 0.00, -0.00, -1.00, 156.6, 586.0)">m</text><text xml:space="preserve" font-family="HelveticaNeue-Light,Helvetica Neue" font-size="66.0" fill="#FFFFFF" transform="matrix(1.00, 0.00, -0.00, -1.00, 211.6, 586.0)">i</text><text xml:space="preserve" font-family="HelveticaNeue-Light,Helvetica Neue" font-size="66.0" fill="#FFFFFF" transform="matrix(1.00, 0.00, -0.00, -1.00, 223.8, 586.0)">t</text><text xml:space="preserve" font-family="HelveticaNeue-Light,Helvetica Neue" font-size="66.0" fill="#FFFFFF" transform="matrix(1.00, 0.00, -0.00, -1.00, 243.3, 586.0)">i</text><text xml:space="preserve" font-family="HelveticaNeue-Light,Helvetica Neue" font-size="66.0" fill="#FFFFFF" transform="matrix(1.00, 0.00, -0.00, -1.00, 255.5, 586.0)">v</text><text xml:space="preserve" font-family="HelveticaNeue-Light,Helvetica Neue" font-size="66.0" fill="#FFFFFF" transform="matrix(1.00, 0.00, -0.00, -1.00, 286.1, 586.0)">e</text><text xml:space="preserve" font-family="HelveticaNeue-Light,Helvetica Neue" font-size="66.0" fill="#FFFFFF" transform="matrix(1.00, 0.00, -0.00, -1.00, 320.3, 586.0)">s</text><image xlink:href="../../3320ECCF-2517-408F-AC31-6DE14F9E30F9/assets/502B21FEE301B80DFF62FEAF254BFD1C.png" width="12.00" height="13.00" transform="matrix(1.00, 0.00, -0.00, -1.00, 82.0, 407.0)"></image><g><clipPath id="clip0x600000ca5640"><path d="M 82.0 394.7 L 93.9 394.7 L 93.9 406.7 L 82.0 406.7 Z M 82.0 394.7 "></path></clipPath><g clip-path="url(#clip0x600000ca5640)"><g><g><clipPath id="clip0x600000ca5e80"><path d="M 82.0 406.7 L 93.9 406.7 L 93.9 394.7 L 82.0 394.7 Z M 82.0 406.7 "></path></clipPath><g clip-path="url(#clip0x600000ca5e80)"><g><clipPath id="clip0x600000ca6120"><path d="M 78.0 387.0 L 98.0 387.0 L 98.0 414.0 L 78.0 414.0 Z M 78.0 387.0 "></path></clipPath><g clip-path="url(#clip0x600000ca6120)"><path d="M 93.9 404.3 C 93.9 404.8 93.7 405.3 93.2 405.9 C 92.7 406.4 92.1 406.7 91.5 406.7 C 91.3 406.7 90.9 406.5 90.3 406.3 C 89.4 405.8 88.6 405.6 87.9 405.6 C 87.3 405.6 86.5 405.8 85.6 406.3 C 85.0 406.5 84.6 406.7 84.3 406.7 C 83.8 406.7 83.2 406.4 82.7 405.9 C 82.2 405.4 82.0 404.8 82.0 404.3 C 82.0 404.0 82.1 403.6 82.4 403.0 C 82.8 402.1 83.0 401.3 83.0 400.7 C 83.0 400.0 82.8 399.3 82.4 398.3 C 82.1 397.8 82.0 397.4 82.0 397.1 C 82.0 396.5 82.2 396.0 82.7 395.5 C 83.2 394.9 83.8 394.7 84.3 394.7 C 84.6 394.7 85.0 394.8 85.6 395.1 C 86.5 395.5 87.3 395.8 87.9 395.8 C 88.6 395.8 89.4 395.5 90.3 395.1 C 90.9 394.8 91.3 394.7 91.5 394.7 C 92.1 394.7 92.7 394.9 93.2 395.5 C 93.7 396.0 93.9 396.5 93.9 397.1 C 93.9 397.4 93.8 397.8 93.5 398.3 C 93.1 399.3 92.9 400.0 92.9 400.7 C 92.9 401.3 93.1 402.1 93.5 403.0 C 93.8 403.6 93.9 404.0 93.9 404.3 " fill="#FFFFFF"></path></g></g></g></g></g></g></g><image xlink:href="../../3320ECCF-2517-408F-AC31-6DE14F9E30F9/assets/6F1C3A1E798AC59E7181E2C861B2282A.png" width="122.00" height="34.00" transform="matrix(1.00, 0.00, -0.00, -1.00, 110.0, 417.0)"></image><text xml:space="preserve" font-family="Monaco,Monaco" font-size="32.0" fill="#FFFFFF" transform="matrix(1.00, 0.00, -0.00, -1.00, 114.0, 390.7)">T</text><text xml:space="preserve" font-family="Monaco,Monaco" font-size="32.0" fill="#FFFFFF" transform="matrix(1.00, 0.00, -0.00, -1.00, 133.2, 390.7)">h</text><text xml:space="preserve" font-family="Monaco,Monaco" font-size="32.0" fill="#FFFFFF" transform="matrix(1.00, 0.00, -0.00, -1.00, 152.4, 390.7)">r</text><text xml:space="preserve" font-family="Monaco,Monaco" font-size="32.0" fill="#FFFFFF" transform="matrix(1.00, 0.00, -0.00, -1.00, 171.6, 390.7)">e</text><text xml:space="preserve" font-family="Monaco,Monaco" font-size="32.0" fill="#FFFFFF" transform="matrix(1.00, 0.00, -0.00, -1.00, 190.8, 390.7)">a</text><text xml:space="preserve" font-family="Monaco,Monaco" font-size="32.0" fill="#FFFFFF" transform="matrix(1.00, 0.00, -0.00, -1.00, 210.0, 390.7)">d</text><image xlink:href="../../3320ECCF-2517-408F-AC31-6DE14F9E30F9/assets/502B21FEE301B80DFF62FEAF254BFD1C.png" width="12.00" height="13.00" transform="matrix(1.00, 0.00, -0.00, -1.00, 82.0, 341.0)"></image><g><clipPath id="clip0x600000ca6660"><path d="M 82.0 328.7 L 93.9 328.7 L 93.9 340.7 L 82.0 340.7 Z M 82.0 328.7 "></path></clipPath><g clip-path="url(#clip0x600000ca6660)"><g><g><clipPath id="clip0x600000ca6a80"><path d="M 82.0 340.7 L 93.9 340.7 L 93.9 328.7 L 82.0 328.7 Z M 82.0 340.7 "></path></clipPath><g clip-path="url(#clip0x600000ca6a80)"><g><clipPath id="clip0x600000ca6b40"><path d="M 78.0 321.0 L 98.0 321.0 L 98.0 348.0 L 78.0 348.0 Z M 78.0 321.0 "></path></clipPath><g clip-path="url(#clip0x600000ca6b40)"><path d="M 93.9 338.3 C 93.9 338.8 93.7 339.3 93.2 339.9 C 92.7 340.4 92.1 340.7 91.5 340.7 C 91.3 340.7 90.9 340.5 90.3 340.3 C 89.4 339.8 88.6 339.6 87.9 339.6 C 87.3 339.6 86.5 339.8 85.6 340.3 C 85.0 340.5 84.6 340.7 84.3 340.7 C 83.8 340.7 83.2 340.4 82.7 339.9 C 82.2 339.4 82.0 338.8 82.0 338.3 C 82.0 338.0 82.1 337.6 82.4 337.0 C 82.8 336.1 83.0 335.3 83.0 334.7 C 83.0 334.0 82.8 333.3 82.4 332.3 C 82.1 331.8 82.0 331.4 82.0 331.1 C 82.0 330.5 82.2 330.0 82.7 329.5 C 83.2 328.9 83.8 328.7 84.3 328.7 C 84.6 328.7 85.0 328.8 85.6 329.1 C 86.5 329.5 87.3 329.8 87.9 329.8 C 88.6 329.8 89.4 329.5 90.3 329.1 C 90.9 328.8 91.3 328.7 91.5 328.7 C 92.1 328.7 92.7 328.9 93.2 329.5 C 93.7 330.0 93.9 330.5 93.9 331.1 C 93.9 331.4 93.8 331.8 93.5 332.3 C 93.1 333.3 92.9 334.0 92.9 334.7 C 92.9 335.3 93.1 336.1 93.5 337.0 C 93.8 337.6 93.9 338.0 93.9 338.3 " fill="#FFFFFF"></path></g></g></g></g></g></g></g><image xlink:href="../../3320ECCF-2517-408F-AC31-6DE14F9E30F9/assets/0773AC86C7F499E4206A09631692A945.png" width="235.00" height="42.00" transform="matrix(1.00, 0.00, -0.00, -1.00, 112.0, 352.0)"></image><text xml:space="preserve" font-family="Monaco,Monaco" font-size="32.0" fill="#FFFFFF" transform="matrix(1.00, 0.00, -0.00, -1.00, 114.0, 324.7)">s</text><text xml:space="preserve" font-family="Monaco,Monaco" font-size="32.0" fill="#FFFFFF" transform="matrix(1.00, 0.00, -0.00, -1.00, 133.2, 324.7)">y</text><text xml:space="preserve" font-family="Monaco,Monaco" font-size="32.0" fill="#FFFFFF" transform="matrix(1.00, 0.00, -0.00, -1.00, 152.4, 324.7)">n</text><text xml:space="preserve" font-family="Monaco,Monaco" font-size="32.0" fill="#FFFFFF" transform="matrix(1.00, 0.00, -0.00, -1.00, 171.6, 324.7)">c</text><text xml:space="preserve" font-family="Monaco,Monaco" font-size="32.0" fill="#FFFFFF" transform="matrix(1.00, 0.00, -0.00, -1.00, 190.8, 324.7)">h</text><text xml:space="preserve" font-family="Monaco,Monaco" font-size="32.0" fill="#FFFFFF" transform="matrix(1.00, 0.00, -0.00, -1.00, 210.0, 324.7)">r</text><text xml:space="preserve" font-family="Monaco,Monaco" font-size="32.0" fill="#FFFFFF" transform="matrix(1.00, 0.00, -0.00, -1.00, 229.2, 324.7)">o</text><text xml:space="preserve" font-family="Monaco,Monaco" font-size="32.0" fill="#FFFFFF" transform="matrix(1.00, 0.00, -0.00, -1.00, 248.4, 324.7)">n</text><text xml:space="preserve" font-family="Monaco,Monaco" font-size="32.0" fill="#FFFFFF" transform="matrix(1.00, 0.00, -0.00, -1.00, 267.7, 324.7)">i</text><text xml:space="preserve" font-family="Monaco,Monaco" font-size="32.0" fill="#FFFFFF" transform="matrix(1.00, 0.00, -0.00, -1.00, 286.9, 324.7)">z</text><text xml:space="preserve" font-family="Monaco,Monaco" font-size="32.0" fill="#FFFFFF" transform="matrix(1.00, 0.00, -0.00, -1.00, 306.1, 324.7)">e</text><text xml:space="preserve" font-family="Monaco,Monaco" font-size="32.0" fill="#FFFFFF" transform="matrix(1.00, 0.00, -0.00, -1.00, 325.3, 324.7)">d</text><image xlink:href="../../3320ECCF-2517-408F-AC31-6DE14F9E30F9/assets/502B21FEE301B80DFF62FEAF254BFD1C.png" width="12.00" height="13.00" transform="matrix(1.00, 0.00, -0.00, -1.00, 82.0, 275.0)"></image><g><clipPath id="clip0x6080008ab040"><path d="M 82.0 262.7 L 93.9 262.7 L 93.9 274.7 L 82.0 274.7 Z M 82.0 262.7 "></path></clipPath><g clip-path="url(#clip0x6080008ab040)"><g><g><clipPath id="clip0x6080006a2a60"><path d="M 82.0 274.7 L 93.9 274.7 L 93.9 262.7 L 82.0 262.7 Z M 82.0 274.7 "></path></clipPath><g clip-path="url(#clip0x6080006a2a60)"><g><clipPath id="clip0x6080008ab160"><path d="M 78.0 255.0 L 98.0 255.0 L 98.0 282.0 L 78.0 282.0 Z M 78.0 255.0 "></path></clipPath><g clip-path="url(#clip0x6080008ab160)"><path d="M 93.9 272.3 C 93.9 272.8 93.7 273.3 93.2 273.9 C 92.7 274.4 92.1 274.7 91.5 274.7 C 91.3 274.7 90.9 274.5 90.3 274.3 C 89.4 273.8 88.6 273.6 87.9 273.6 C 87.3 273.6 86.5 273.8 85.6 274.3 C 85.0 274.5 84.6 274.7 84.3 274.7 C 83.8 274.7 83.2 274.4 82.7 273.9 C 82.2 273.4 82.0 272.8 82.0 272.3 C 82.0 272.0 82.1 271.6 82.4 271.0 C 82.8 270.1 83.0 269.3 83.0 268.7 C 83.0 268.0 82.8 267.3 82.4 266.3 C 82.1 265.8 82.0 265.4 82.0 265.1 C 82.0 264.5 82.2 264.0 82.7 263.5 C 83.2 262.9 83.8 262.7 84.3 262.7 C 84.6 262.7 85.0 262.8 85.6 263.1 C 86.5 263.5 87.3 263.8 87.9 263.8 C 88.6 263.8 89.4 263.5 90.3 263.1 C 90.9 262.8 91.3 262.7 91.5 262.7 C 92.1 262.7 92.7 262.9 93.2 263.5 C 93.7 264.0 93.9 264.5 93.9 265.1 C 93.9 265.4 93.8 265.8 93.5 266.3 C 93.1 267.3 92.9 268.0 92.9 268.7 C 92.9 269.3 93.1 270.1 93.5 271.0 C 93.8 271.6 93.9 272.0 93.9 272.3 " fill="#FFFFFF"></path></g></g></g></g></g></g></g><image xlink:href="../../3320ECCF-2517-408F-AC31-6DE14F9E30F9/assets/CCDB6C35E7DB222B782A20BFAD1304C5.png" width="83.00" height="35.00" transform="matrix(1.00, 0.00, -0.00, -1.00, 110.0, 286.0)"></image><text xml:space="preserve" font-family="Monaco,Monaco" font-size="32.0" fill="#FFFFFF" transform="matrix(1.00, 0.00, -0.00, -1.00, 114.0, 258.7)">w</text><text xml:space="preserve" font-family="Monaco,Monaco" font-size="32.0" fill="#FFFFFF" transform="matrix(1.00, 0.00, -0.00, -1.00, 133.2, 258.7)">a</text><text xml:space="preserve" font-family="Monaco,Monaco" font-size="32.0" fill="#FFFFFF" transform="matrix(1.00, 0.00, -0.00, -1.00, 152.4, 258.7)">i</text><text xml:space="preserve" font-family="Monaco,Monaco" font-size="32.0" fill="#FFFFFF" transform="matrix(1.00, 0.00, -0.00, -1.00, 171.6, 258.7)">t</text><image xlink:href="../../3320ECCF-2517-408F-AC31-6DE14F9E30F9/assets/2BB96F79A2224CB9A7CE8ADB7B20B75F.png" width="21.00" height="33.00" transform="matrix(1.00, 0.00, -0.00, -1.00, 186.0, 284.0)"></image><text xml:space="preserve" font-family="HelveticaNeue,Helvetica Neue" font-size="32.0" fill="#FFFFFF" transform="matrix(1.00, 0.00, -0.00, -1.00, 190.8, 258.7)">/</text><image xlink:href="../../3320ECCF-2517-408F-AC31-6DE14F9E30F9/assets/26BF90855FC5239FA3F5F76D2F88F458.png" width="122.00" height="42.00" transform="matrix(1.00, 0.00, -0.00, -1.00, 199.0, 286.0)"></image><text xml:space="preserve" font-family="Monaco,Monaco" font-size="32.0" fill="#FFFFFF" transform="matrix(1.00, 0.00, -0.00, -1.00, 201.5, 258.7)">n</text><text xml:space="preserve" font-family="Monaco,Monaco" font-size="32.0" fill="#FFFFFF" transform="matrix(1.00, 0.00, -0.00, -1.00, 220.7, 258.7)">o</text><text xml:space="preserve" font-family="Monaco,Monaco" font-size="32.0" fill="#FFFFFF" transform="matrix(1.00, 0.00, -0.00, -1.00, 239.9, 258.7)">t</text><text xml:space="preserve" font-family="Monaco,Monaco" font-size="32.0" fill="#FFFFFF" transform="matrix(1.00, 0.00, -0.00, -1.00, 259.1, 258.7)">i</text><text xml:space="preserve" font-family="Monaco,Monaco" font-size="32.0" fill="#FFFFFF" transform="matrix(1.00, 0.00, -0.00, -1.00, 278.3, 258.7)">f</text><text xml:space="preserve" font-family="Monaco,Monaco" font-size="32.0" fill="#FFFFFF" transform="matrix(1.00, 0.00, -0.00, -1.00, 297.5, 258.7)">y</text><image xlink:href="../../3320ECCF-2517-408F-AC31-6DE14F9E30F9/assets/27A5C8960DAD086C7C752DA4034A9967.png" width="12.00" height="12.00" transform="matrix(1.00, 0.00, -0.00, -1.00, 82.0, 210.0)"></image><g><clipPath id="clip0x6080008abca0"><path d="M 82.0 198.1 L 93.3 198.1 L 93.3 209.5 L 82.0 209.5 Z M 82.0 198.1 "></path></clipPath><g clip-path="url(#clip0x6080008abca0)"><g><g><clipPath id="clip0x6080008ac060"><path d="M 82.0 209.5 L 93.3 209.5 L 93.3 198.1 L 82.0 198.1 Z M 82.0 209.5 "></path></clipPath><g clip-path="url(#clip0x6080008ac060)"><g><clipPath id="clip0x6080008ac1e0"><path d="M 78.0 191.0 L 98.0 191.0 L 98.0 217.0 L 78.0 217.0 Z M 78.0 191.0 "></path></clipPath><g clip-path="url(#clip0x6080008ac1e0)"><path d="M 93.3 207.2 C 93.3 207.7 93.0 208.2 92.6 208.7 C 92.1 209.2 91.6 209.5 91.0 209.5 C 90.8 209.5 90.4 209.3 89.8 209.1 C 88.9 208.7 88.2 208.5 87.6 208.5 C 87.0 208.5 86.2 208.7 85.4 209.1 C 84.9 209.3 84.5 209.5 84.2 209.5 C 83.7 209.5 83.2 209.2 82.7 208.7 C 82.2 208.2 82.0 207.7 82.0 207.2 C 82.0 206.9 82.1 206.5 82.4 206.0 C 82.8 205.1 83.0 204.4 83.0 203.8 C 83.0 203.2 82.8 202.5 82.4 201.6 C 82.1 201.1 82.0 200.7 82.0 200.4 C 82.0 199.9 82.2 199.4 82.7 198.9 C 83.2 198.4 83.7 198.1 84.2 198.1 C 84.5 198.1 84.9 198.3 85.4 198.5 C 86.2 199.0 87.0 199.2 87.6 199.2 C 88.2 199.2 88.9 199.0 89.8 198.5 C 90.4 198.3 90.8 198.1 91.0 198.1 C 91.6 198.1 92.1 198.4 92.6 198.9 C 93.0 199.4 93.3 199.9 93.3 200.4 C 93.3 200.7 93.1 201.1 92.9 201.6 C 92.5 202.5 92.3 203.2 92.3 203.8 C 92.3 204.4 92.5 205.1 92.9 206.0 C 93.1 206.5 93.3 206.9 93.3 207.2 " fill="#FFFFFF"></path></g></g></g></g></g></g></g><image xlink:href="../../3320ECCF-2517-408F-AC31-6DE14F9E30F9/assets/C1E2D5DFD6D5ECD1D1E38D60B195BE90.png" width="158.00" height="33.00" transform="matrix(1.00, 0.00, -0.00, -1.00, 111.0, 219.0)"></image><text xml:space="preserve" font-family="HelveticaNeue-Light,Helvetica Neue" font-size="32.0" fill="#FFFFFF" transform="matrix(1.00, 0.00, -0.00, -1.00, 114.0, 193.7)">C</text><text xml:space="preserve" font-family="HelveticaNeue-Light,Helvetica Neue" font-size="32.0" fill="#FFFFFF" transform="matrix(1.00, 0.00, -0.00, -1.00, 136.5, 193.7)">o</text><text xml:space="preserve" font-family="HelveticaNeue-Light,Helvetica Neue" font-size="32.0" fill="#FFFFFF" transform="matrix(1.00, 0.00, -0.00, -1.00, 154.3, 193.7)">l</text><text xml:space="preserve" font-family="HelveticaNeue-Light,Helvetica Neue" font-size="32.0" fill="#FFFFFF" transform="matrix(1.00, 0.00, -0.00, -1.00, 160.2, 193.7)">l</text><text xml:space="preserve" font-family="HelveticaNeue-Light,Helvetica Neue" font-size="32.0" fill="#FFFFFF" transform="matrix(1.00, 0.00, -0.00, -1.00, 166.2, 193.7)">e</text><text xml:space="preserve" font-family="HelveticaNeue-Light,Helvetica Neue" font-size="32.0" fill="#FFFFFF" transform="matrix(1.00, 0.00, -0.00, -1.00, 182.8, 193.7)">c</text><text xml:space="preserve" font-family="HelveticaNeue-Light,Helvetica Neue" font-size="32.0" fill="#FFFFFF" transform="matrix(1.00, 0.00, -0.00, -1.00, 199.4, 193.7)">t</text><text xml:space="preserve" font-family="HelveticaNeue-Light,Helvetica Neue" font-size="32.0" fill="#FFFFFF" transform="matrix(1.00, 0.00, -0.00, -1.00, 208.8, 193.7)">i</text><text xml:space="preserve" font-family="HelveticaNeue-Light,Helvetica Neue" font-size="32.0" fill="#FFFFFF" transform="matrix(1.00, 0.00, -0.00, -1.00, 214.8, 193.7)">o</text><text xml:space="preserve" font-family="HelveticaNeue-Light,Helvetica Neue" font-size="32.0" fill="#FFFFFF" transform="matrix(1.00, 0.00, -0.00, -1.00, 232.6, 193.7)">n</text><text xml:space="preserve" font-family="HelveticaNeue-Light,Helvetica Neue" font-size="32.0" fill="#FFFFFF" transform="matrix(1.00, 0.00, -0.00, -1.00, 249.7, 193.7)">s</text></g></svg>