<?xml version="1.0" encoding="UTF-8" standalone="no"?><svg xmlns="http://www.w3.org/2000/svg" xmlns:xlink="http://www.w3.org/1999/xlink" clip-rule="evenodd" stroke-miterlimit="10" viewBox="0 0 1280 720"><desc>SVG generated by Keynote</desc><defs></defs><g transform="matrix(1.00, 0.00, -0.00, -1.00, 0.0, 720.0)"><g><clipPath id="clip0x600000cbe900"><path d="M 0.0 720.0 L 1280.0 720.0 L 1280.0 0.0 L 0.0 0.0 Z M 0.0 720.0 "></path></clipPath><g clip-path="url(#clip0x600000cbe900)"><image xlink:href="../../3320ECCF-2517-408F-AC31-6DE14F9E30F9/assets/7D0D479F0D8AC86C9E875656D9072873.jpeg" width="2048.00" height="1536.00" transform="matrix(0.62, 0.00, -0.00, -0.62, 0.0, 840.0)"></image></g></g><image xlink:href="47DEEA44326FDB7ECF246CAEDE94C495.png" width="712.00" height="69.00" transform="matrix(1.00, 0.00, -0.00, -1.00, 82.0, 635.0)"></image><text xml:space="preserve" font-family="HelveticaNeue-Light,Helvetica Neue" font-size="66.0" fill="#FFFFFF" transform="matrix(1.00, 0.00, -0.00, -1.00, 82.0, 586.0)">N</text><text xml:space="preserve" font-family="HelveticaNeue-Light,Helvetica Neue" font-size="66.0" fill="#FFFFFF" transform="matrix(1.00, 0.00, -0.00, -1.00, 128.5, 586.0)">e</text><text xml:space="preserve" font-family="HelveticaNeue-Light,Helvetica Neue" font-size="66.0" fill="#FFFFFF" transform="matrix(1.00, 0.00, -0.00, -1.00, 162.7, 586.0)">w</text><text xml:space="preserve" font-family="HelveticaNeue-Light,Helvetica Neue" font-size="66.0" fill="#FFFFFF" transform="matrix(1.00, 0.00, -0.00, -1.00, 211.6, 586.0)">e</text><text xml:space="preserve" font-family="HelveticaNeue-Light,Helvetica Neue" font-size="66.0" fill="#FFFFFF" transform="matrix(1.00, 0.00, -0.00, -1.00, 245.9, 586.0)">r</text><text xml:space="preserve" font-family="HelveticaNeue-Light,Helvetica Neue" font-size="66.0" fill="#FFFFFF" transform="matrix(1.00, 0.00, -0.00, -1.00, 266.7, 586.0)"> </text><text xml:space="preserve" font-family="HelveticaNeue-Light,Helvetica Neue" font-size="66.0" fill="#FFFFFF" transform="matrix(1.00, 0.00, -0.00, -1.00, 285.0, 586.0)">c</text><text xml:space="preserve" font-family="HelveticaNeue-Light,Helvetica Neue" font-size="66.0" fill="#FFFFFF" transform="matrix(1.00, 0.00, -0.00, -1.00, 319.3, 586.0)">o</text><text xml:space="preserve" font-family="HelveticaNeue-Light,Helvetica Neue" font-size="66.0" fill="#FFFFFF" transform="matrix(1.00, 0.00, -0.00, -1.00, 356.0, 586.0)">n</text><text xml:space="preserve" font-family="HelveticaNeue-Light,Helvetica Neue" font-size="66.0" fill="#FFFFFF" transform="matrix(1.00, 0.00, -0.00, -1.00, 391.4, 586.0)">c</text><text xml:space="preserve" font-family="HelveticaNeue-Light,Helvetica Neue" font-size="66.0" fill="#FFFFFF" transform="matrix(1.00, 0.00, -0.00, -1.00, 425.7, 586.0)">u</text><text xml:space="preserve" font-family="HelveticaNeue-Light,Helvetica Neue" font-size="66.0" fill="#FFFFFF" transform="matrix(1.00, 0.00, -0.00, -1.00, 461.1, 586.0)">r</text><text xml:space="preserve" font-family="HelveticaNeue-Light,Helvetica Neue" font-size="66.0" fill="#FFFFFF" transform="matrix(1.00, 0.00, -0.00, -1.00, 481.9, 586.0)">r</text><text xml:space="preserve" font-family="HelveticaNeue-Light,Helvetica Neue" font-size="66.0" fill="#FFFFFF" transform="matrix(1.00, 0.00, -0.00, -1.00, 501.5, 586.0)">e</text><text xml:space="preserve" font-family="HelveticaNeue-Light,Helvetica Neue" font-size="66.0" fill="#FFFFFF" transform="matrix(1.00, 0.00, -0.00, -1.00, 535.8, 586.0)">n</text><text xml:space="preserve" font-family="HelveticaNeue-Light,Helvetica Neue" font-size="66.0" fill="#FFFFFF" transform="matrix(1.00, 0.00, -0.00, -1.00, 571.2, 586.0)">c</text><text xml:space="preserve" font-family="HelveticaNeue-Light,Helvetica Neue" font-size="66.0" fill="#FFFFFF" transform="matrix(1.00, 0.00, -0.00, -1.00, 605.4, 586.0)">y</text><text xml:space="preserve" font-family="HelveticaNeue-Light,Helvetica Neue" font-size="66.0" fill="#FFFFFF" transform="matrix(1.00, 0.00, -0.00, -1.00, 636.0, 586.0)"> </text><text xml:space="preserve" font-family="HelveticaNeue-Light,Helvetica Neue" font-size="66.0" fill="#FFFFFF" transform="matrix(1.00, 0.00, -0.00, -1.00, 654.4, 586.0)">t</text><text xml:space="preserve" font-family="HelveticaNeue-Light,Helvetica Neue" font-size="66.0" fill="#FFFFFF" transform="matrix(1.00, 0.00, -0.00, -1.00, 673.9, 586.0)">o</text><text xml:space="preserve" font-family="HelveticaNeue-Light,Helvetica Neue" font-size="66.0" fill="#FFFFFF" transform="matrix(1.00, 0.00, -0.00, -1.00, 710.6, 586.0)">o</text><text xml:space="preserve" font-family="HelveticaNeue-Light,Helvetica Neue" font-size="66.0" fill="#FFFFFF" transform="matrix(1.00, 0.00, -0.00, -1.00, 747.3, 586.0)">l</text><text xml:space="preserve" font-family="HelveticaNeue-Light,Helvetica Neue" font-size="66.0" fill="#FFFFFF" transform="matrix(1.00, 0.00, -0.00, -1.00, 759.5, 586.0)">s</text><image xlink:href="../../3320ECCF-2517-408F-AC31-6DE14F9E30F9/assets/27A5C8960DAD086C7C752DA4034A9967.png" width="12.00" height="12.00" transform="matrix(1.00, 0.00, -0.00, -1.00, 82.0, 433.0)"></image><g><clipPath id="clip0x600000cbeea0"><path d="M 82.0 421.1 L 93.3 421.1 L 93.3 432.5 L 82.0 432.5 Z M 82.0 421.1 "></path></clipPath><g clip-path="url(#clip0x600000cbeea0)"><g><g><clipPath id="clip0x600000cbf260"><path d="M 82.0 432.5 L 93.3 432.5 L 93.3 421.1 L 82.0 421.1 Z M 82.0 432.5 "></path></clipPath><g clip-path="url(#clip0x600000cbf260)"><g><clipPath id="clip0x600000cbf3e0"><path d="M 78.0 414.0 L 98.0 414.0 L 98.0 440.0 L 78.0 440.0 Z M 78.0 414.0 "></path></clipPath><g clip-path="url(#clip0x600000cbf3e0)"><path d="M 93.3 430.2 C 93.3 430.7 93.0 431.2 92.6 431.7 C 92.1 432.2 91.6 432.5 91.0 432.5 C 90.8 432.5 90.4 432.3 89.8 432.1 C 88.9 431.7 88.2 431.5 87.6 431.5 C 87.0 431.5 86.2 431.7 85.4 432.1 C 84.9 432.3 84.5 432.5 84.2 432.5 C 83.7 432.5 83.2 432.2 82.7 431.7 C 82.2 431.2 82.0 430.7 82.0 430.2 C 82.0 429.9 82.1 429.5 82.4 429.0 C 82.8 428.1 83.0 427.4 83.0 426.8 C 83.0 426.2 82.8 425.5 82.4 424.6 C 82.1 424.1 82.0 423.7 82.0 423.4 C 82.0 422.9 82.2 422.4 82.7 421.9 C 83.2 421.4 83.7 421.1 84.2 421.1 C 84.5 421.1 84.9 421.3 85.4 421.5 C 86.2 422.0 87.0 422.2 87.6 422.2 C 88.2 422.2 88.9 422.0 89.8 421.5 C 90.4 421.3 90.8 421.1 91.0 421.1 C 91.6 421.1 92.1 421.4 92.6 421.9 C 93.0 422.4 93.3 422.9 93.3 423.4 C 93.3 423.7 93.1 424.1 92.9 424.6 C 92.5 425.5 92.3 426.2 92.3 426.8 C 92.3 427.4 92.5 428.1 92.9 429.0 C 93.1 429.5 93.3 429.9 93.3 430.2 " fill="#FFFFFF"></path></g></g></g></g></g></g></g><image xlink:href="8B6184A6D5F55E7A257942BCEBCFF88F.png" width="143.00" height="32.00" transform="matrix(1.00, 0.00, -0.00, -1.00, 112.0, 441.0)"></image><text xml:space="preserve" font-family="HelveticaNeue-Light,Helvetica Neue" font-size="32.0" fill="#FFFFFF" transform="matrix(1.00, 0.00, -0.00, -1.00, 114.0, 416.7)">E</text><text xml:space="preserve" font-family="HelveticaNeue-Light,Helvetica Neue" font-size="32.0" fill="#FFFFFF" transform="matrix(1.00, 0.00, -0.00, -1.00, 133.0, 416.7)">x</text><text xml:space="preserve" font-family="HelveticaNeue-Light,Helvetica Neue" font-size="32.0" fill="#FFFFFF" transform="matrix(1.00, 0.00, -0.00, -1.00, 148.4, 416.7)">e</text><text xml:space="preserve" font-family="HelveticaNeue-Light,Helvetica Neue" font-size="32.0" fill="#FFFFFF" transform="matrix(1.00, 0.00, -0.00, -1.00, 165.0, 416.7)">c</text><text xml:space="preserve" font-family="HelveticaNeue-Light,Helvetica Neue" font-size="32.0" fill="#FFFFFF" transform="matrix(1.00, 0.00, -0.00, -1.00, 181.6, 416.7)">u</text><text xml:space="preserve" font-family="HelveticaNeue-Light,Helvetica Neue" font-size="32.0" fill="#FFFFFF" transform="matrix(1.00, 0.00, -0.00, -1.00, 198.8, 416.7)">t</text><text xml:space="preserve" font-family="HelveticaNeue-Light,Helvetica Neue" font-size="32.0" fill="#FFFFFF" transform="matrix(1.00, 0.00, -0.00, -1.00, 208.2, 416.7)">o</text><text xml:space="preserve" font-family="HelveticaNeue-Light,Helvetica Neue" font-size="32.0" fill="#FFFFFF" transform="matrix(1.00, 0.00, -0.00, -1.00, 226.0, 416.7)">r</text><text xml:space="preserve" font-family="HelveticaNeue-Light,Helvetica Neue" font-size="32.0" fill="#FFFFFF" transform="matrix(1.00, 0.00, -0.00, -1.00, 236.1, 416.7)">s</text><text xml:space="preserve" font-family="HelveticaNeue-Light,Helvetica Neue" font-size="32.0" fill="#FFFFFF" transform="matrix(1.00, 0.00, -0.00, -1.00, 251.5, 416.7)"> </text><image xlink:href="../../3320ECCF-2517-408F-AC31-6DE14F9E30F9/assets/27A5C8960DAD086C7C752DA4034A9967.png" width="12.00" height="12.00" transform="matrix(1.00, 0.00, -0.00, -1.00, 82.0, 371.0)"></image><g><clipPath id="clip0x600000cbf9e0"><path d="M 82.0 359.1 L 93.3 359.1 L 93.3 370.5 L 82.0 370.5 Z M 82.0 359.1 "></path></clipPath><g clip-path="url(#clip0x600000cbf9e0)"><g><g><clipPath id="clip0x600000cbfda0"><path d="M 82.0 370.5 L 93.3 370.5 L 93.3 359.1 L 82.0 359.1 Z M 82.0 370.5 "></path></clipPath><g clip-path="url(#clip0x600000cbfda0)"><g><clipPath id="clip0x600000cbff20"><path d="M 78.0 352.0 L 98.0 352.0 L 98.0 378.0 L 78.0 378.0 Z M 78.0 352.0 "></path></clipPath><g clip-path="url(#clip0x600000cbff20)"><path d="M 93.3 368.2 C 93.3 368.7 93.0 369.2 92.6 369.7 C 92.1 370.2 91.6 370.5 91.0 370.5 C 90.8 370.5 90.4 370.3 89.8 370.1 C 88.9 369.7 88.2 369.5 87.6 369.5 C 87.0 369.5 86.2 369.7 85.4 370.1 C 84.9 370.3 84.5 370.5 84.2 370.5 C 83.7 370.5 83.2 370.2 82.7 369.7 C 82.2 369.2 82.0 368.7 82.0 368.2 C 82.0 367.9 82.1 367.5 82.4 367.0 C 82.8 366.1 83.0 365.4 83.0 364.8 C 83.0 364.2 82.8 363.5 82.4 362.6 C 82.1 362.1 82.0 361.7 82.0 361.4 C 82.0 360.9 82.2 360.4 82.7 359.9 C 83.2 359.4 83.7 359.1 84.2 359.1 C 84.5 359.1 84.9 359.3 85.4 359.5 C 86.2 360.0 87.0 360.2 87.6 360.2 C 88.2 360.2 88.9 360.0 89.8 359.5 C 90.4 359.3 90.8 359.1 91.0 359.1 C 91.6 359.1 92.1 359.4 92.6 359.9 C 93.0 360.4 93.3 360.9 93.3 361.4 C 93.3 361.7 93.1 362.1 92.9 362.6 C 92.5 363.5 92.3 364.2 92.3 364.8 C 92.3 365.4 92.5 366.1 92.9 367.0 C 93.1 367.5 93.3 367.9 93.3 368.2 " fill="#FFFFFF"></path></g></g></g></g></g></g></g><image xlink:href="D8B5C524C8B34E4C00A8EBDA8172A243.png" width="200.00" height="39.00" transform="matrix(1.00, 0.00, -0.00, -1.00, 111.0, 380.0)"></image><text xml:space="preserve" font-family="HelveticaNeue-Light,Helvetica Neue" font-size="32.0" fill="#FFFFFF" transform="matrix(1.00, 0.00, -0.00, -1.00, 114.0, 354.7)">S</text><text xml:space="preserve" font-family="HelveticaNeue-Light,Helvetica Neue" font-size="32.0" fill="#FFFFFF" transform="matrix(1.00, 0.00, -0.00, -1.00, 134.2, 354.7)">y</text><text xml:space="preserve" font-family="HelveticaNeue-Light,Helvetica Neue" font-size="32.0" fill="#FFFFFF" transform="matrix(1.00, 0.00, -0.00, -1.00, 149.0, 354.7)">n</text><text xml:space="preserve" font-family="HelveticaNeue-Light,Helvetica Neue" font-size="32.0" fill="#FFFFFF" transform="matrix(1.00, 0.00, -0.00, -1.00, 166.2, 354.7)">c</text><text xml:space="preserve" font-family="HelveticaNeue-Light,Helvetica Neue" font-size="32.0" fill="#FFFFFF" transform="matrix(1.00, 0.00, -0.00, -1.00, 182.8, 354.7)">h</text><text xml:space="preserve" font-family="HelveticaNeue-Light,Helvetica Neue" font-size="32.0" fill="#FFFFFF" transform="matrix(1.00, 0.00, -0.00, -1.00, 200.0, 354.7)">r</text><text xml:space="preserve" font-family="HelveticaNeue-Light,Helvetica Neue" font-size="32.0" fill="#FFFFFF" transform="matrix(1.00, 0.00, -0.00, -1.00, 209.5, 354.7)">o</text><text xml:space="preserve" font-family="HelveticaNeue-Light,Helvetica Neue" font-size="32.0" fill="#FFFFFF" transform="matrix(1.00, 0.00, -0.00, -1.00, 227.2, 354.7)">n</text><text xml:space="preserve" font-family="HelveticaNeue-Light,Helvetica Neue" font-size="32.0" fill="#FFFFFF" transform="matrix(1.00, 0.00, -0.00, -1.00, 244.4, 354.7)">i</text><text xml:space="preserve" font-family="HelveticaNeue-Light,Helvetica Neue" font-size="32.0" fill="#FFFFFF" transform="matrix(1.00, 0.00, -0.00, -1.00, 250.4, 354.7)">z</text><text xml:space="preserve" font-family="HelveticaNeue-Light,Helvetica Neue" font-size="32.0" fill="#FFFFFF" transform="matrix(1.00, 0.00, -0.00, -1.00, 265.2, 354.7)">e</text><text xml:space="preserve" font-family="HelveticaNeue-Light,Helvetica Neue" font-size="32.0" fill="#FFFFFF" transform="matrix(1.00, 0.00, -0.00, -1.00, 281.8, 354.7)">r</text><text xml:space="preserve" font-family="HelveticaNeue-Light,Helvetica Neue" font-size="32.0" fill="#FFFFFF" transform="matrix(1.00, 0.00, -0.00, -1.00, 291.9, 354.7)">s</text><text xml:space="preserve" font-family="HelveticaNeue-Light,Helvetica Neue" font-size="32.0" fill="#FFFFFF" transform="matrix(1.00, 0.00, -0.00, -1.00, 307.2, 354.7)"> </text><image xlink:href="../../3320ECCF-2517-408F-AC31-6DE14F9E30F9/assets/27A5C8960DAD086C7C752DA4034A9967.png" width="12.00" height="12.00" transform="matrix(1.00, 0.00, -0.00, -1.00, 82.0, 309.0)"></image><g><clipPath id="clip0x600000ea0480"><path d="M 82.0 297.1 L 93.3 297.1 L 93.3 308.5 L 82.0 308.5 Z M 82.0 297.1 "></path></clipPath><g clip-path="url(#clip0x600000ea0480)"><g><g><clipPath id="clip0x600000ea0660"><path d="M 82.0 308.5 L 93.3 308.5 L 93.3 297.1 L 82.0 297.1 Z M 82.0 308.5 "></path></clipPath><g clip-path="url(#clip0x600000ea0660)"><g><clipPath id="clip0x600000ea07e0"><path d="M 78.0 290.0 L 98.0 290.0 L 98.0 316.0 L 78.0 316.0 Z M 78.0 290.0 "></path></clipPath><g clip-path="url(#clip0x600000ea07e0)"><path d="M 93.3 306.2 C 93.3 306.7 93.0 307.2 92.6 307.7 C 92.1 308.2 91.6 308.5 91.0 308.5 C 90.8 308.5 90.4 308.3 89.8 308.1 C 88.9 307.7 88.2 307.5 87.6 307.5 C 87.0 307.5 86.2 307.7 85.4 308.1 C 84.9 308.3 84.5 308.5 84.2 308.5 C 83.7 308.5 83.2 308.2 82.7 307.7 C 82.2 307.2 82.0 306.7 82.0 306.2 C 82.0 305.9 82.1 305.5 82.4 305.0 C 82.8 304.1 83.0 303.4 83.0 302.8 C 83.0 302.2 82.8 301.5 82.4 300.6 C 82.1 300.1 82.0 299.7 82.0 299.4 C 82.0 298.9 82.2 298.4 82.7 297.9 C 83.2 297.4 83.7 297.1 84.2 297.1 C 84.5 297.1 84.9 297.3 85.4 297.5 C 86.2 298.0 87.0 298.2 87.6 298.2 C 88.2 298.2 88.9 298.0 89.8 297.5 C 90.4 297.3 90.8 297.1 91.0 297.1 C 91.6 297.1 92.1 297.4 92.6 297.9 C 93.0 298.4 93.3 298.9 93.3 299.4 C 93.3 299.7 93.1 300.1 92.9 300.6 C 92.5 301.5 92.3 302.2 92.3 302.8 C 92.3 303.4 92.5 304.1 92.9 305.0 C 93.1 305.5 93.3 305.9 93.3 306.2 " fill="#FFFFFF"></path></g></g></g></g></g></g></g><image xlink:href="EEFC4B0C508E4289B816D8ACF16C4201.png" width="321.00" height="33.00" transform="matrix(1.00, 0.00, -0.00, -1.00, 111.0, 318.0)"></image><text xml:space="preserve" font-family="HelveticaNeue-Light,Helvetica Neue" font-size="32.0" fill="#FFFFFF" transform="matrix(1.00, 0.00, -0.00, -1.00, 114.0, 292.7)">C</text><text xml:space="preserve" font-family="HelveticaNeue-Light,Helvetica Neue" font-size="32.0" fill="#FFFFFF" transform="matrix(1.00, 0.00, -0.00, -1.00, 136.5, 292.7)">o</text><text xml:space="preserve" font-family="HelveticaNeue-Light,Helvetica Neue" font-size="32.0" fill="#FFFFFF" transform="matrix(1.00, 0.00, -0.00, -1.00, 154.3, 292.7)">n</text><text xml:space="preserve" font-family="HelveticaNeue-Light,Helvetica Neue" font-size="32.0" fill="#FFFFFF" transform="matrix(1.00, 0.00, -0.00, -1.00, 171.5, 292.7)">c</text><text xml:space="preserve" font-family="HelveticaNeue-Light,Helvetica Neue" font-size="32.0" fill="#FFFFFF" transform="matrix(1.00, 0.00, -0.00, -1.00, 188.1, 292.7)">u</text><text xml:space="preserve" font-family="HelveticaNeue-Light,Helvetica Neue" font-size="32.0" fill="#FFFFFF" transform="matrix(1.00, 0.00, -0.00, -1.00, 205.3, 292.7)">r</text><text xml:space="preserve" font-family="HelveticaNeue-Light,Helvetica Neue" font-size="32.0" fill="#FFFFFF" transform="matrix(1.00, 0.00, -0.00, -1.00, 215.4, 292.7)">r</text><text xml:space="preserve" font-family="HelveticaNeue-Light,Helvetica Neue" font-size="32.0" fill="#FFFFFF" transform="matrix(1.00, 0.00, -0.00, -1.00, 224.9, 292.7)">e</text><text xml:space="preserve" font-family="HelveticaNeue-Light,Helvetica Neue" font-size="32.0" fill="#FFFFFF" transform="matrix(1.00, 0.00, -0.00, -1.00, 241.5, 292.7)">n</text><text xml:space="preserve" font-family="HelveticaNeue-Light,Helvetica Neue" font-size="32.0" fill="#FFFFFF" transform="matrix(1.00, 0.00, -0.00, -1.00, 258.7, 292.7)">t</text><text xml:space="preserve" font-family="HelveticaNeue-Light,Helvetica Neue" font-size="32.0" fill="#FFFFFF" transform="matrix(1.00, 0.00, -0.00, -1.00, 268.1, 292.7)"> </text><text xml:space="preserve" font-family="HelveticaNeue-Light,Helvetica Neue" font-size="32.0" fill="#FFFFFF" transform="matrix(1.00, 0.00, -0.00, -1.00, 277.0, 292.7)">C</text><text xml:space="preserve" font-family="HelveticaNeue-Light,Helvetica Neue" font-size="32.0" fill="#FFFFFF" transform="matrix(1.00, 0.00, -0.00, -1.00, 299.6, 292.7)">o</text><text xml:space="preserve" font-family="HelveticaNeue-Light,Helvetica Neue" font-size="32.0" fill="#FFFFFF" transform="matrix(1.00, 0.00, -0.00, -1.00, 317.4, 292.7)">l</text><text xml:space="preserve" font-family="HelveticaNeue-Light,Helvetica Neue" font-size="32.0" fill="#FFFFFF" transform="matrix(1.00, 0.00, -0.00, -1.00, 323.3, 292.7)">l</text><text xml:space="preserve" font-family="HelveticaNeue-Light,Helvetica Neue" font-size="32.0" fill="#FFFFFF" transform="matrix(1.00, 0.00, -0.00, -1.00, 329.2, 292.7)">e</text><text xml:space="preserve" font-family="HelveticaNeue-Light,Helvetica Neue" font-size="32.0" fill="#FFFFFF" transform="matrix(1.00, 0.00, -0.00, -1.00, 345.8, 292.7)">c</text><text xml:space="preserve" font-family="HelveticaNeue-Light,Helvetica Neue" font-size="32.0" fill="#FFFFFF" transform="matrix(1.00, 0.00, -0.00, -1.00, 362.4, 292.7)">t</text><text xml:space="preserve" font-family="HelveticaNeue-Light,Helvetica Neue" font-size="32.0" fill="#FFFFFF" transform="matrix(1.00, 0.00, -0.00, -1.00, 371.9, 292.7)">i</text><text xml:space="preserve" font-family="HelveticaNeue-Light,Helvetica Neue" font-size="32.0" fill="#FFFFFF" transform="matrix(1.00, 0.00, -0.00, -1.00, 377.8, 292.7)">o</text><text xml:space="preserve" font-family="HelveticaNeue-Light,Helvetica Neue" font-size="32.0" fill="#FFFFFF" transform="matrix(1.00, 0.00, -0.00, -1.00, 395.6, 292.7)">n</text><text xml:space="preserve" font-family="HelveticaNeue-Light,Helvetica Neue" font-size="32.0" fill="#FFFFFF" transform="matrix(1.00, 0.00, -0.00, -1.00, 412.8, 292.7)">s</text><text xml:space="preserve" font-family="HelveticaNeue-Light,Helvetica Neue" font-size="32.0" fill="#FFFFFF" transform="matrix(1.00, 0.00, -0.00, -1.00, 428.2, 292.7)"> </text><image xlink:href="../../3320ECCF-2517-408F-AC31-6DE14F9E30F9/assets/27A5C8960DAD086C7C752DA4034A9967.png" width="12.00" height="12.00" transform="matrix(1.00, 0.00, -0.00, -1.00, 82.0, 247.0)"></image><g><clipPath id="clip0x6080008bf2c0"><path d="M 82.0 235.1 L 93.3 235.1 L 93.3 246.5 L 82.0 246.5 Z M 82.0 235.1 "></path></clipPath><g clip-path="url(#clip0x6080008bf2c0)"><g><g><clipPath id="clip0x6080008bf680"><path d="M 82.0 246.5 L 93.3 246.5 L 93.3 235.1 L 82.0 235.1 Z M 82.0 246.5 "></path></clipPath><g clip-path="url(#clip0x6080008bf680)"><g><clipPath id="clip0x6080008bf800"><path d="M 78.0 228.0 L 98.0 228.0 L 98.0 254.0 L 78.0 254.0 Z M 78.0 228.0 "></path></clipPath><g clip-path="url(#clip0x6080008bf800)"><path d="M 93.3 244.2 C 93.3 244.7 93.0 245.2 92.6 245.7 C 92.1 246.2 91.6 246.5 91.0 246.5 C 90.8 246.5 90.4 246.3 89.8 246.1 C 88.9 245.7 88.2 245.5 87.6 245.5 C 87.0 245.5 86.2 245.7 85.4 246.1 C 84.9 246.3 84.5 246.5 84.2 246.5 C 83.7 246.5 83.2 246.2 82.7 245.7 C 82.2 245.2 82.0 244.7 82.0 244.2 C 82.0 243.9 82.1 243.5 82.4 243.0 C 82.8 242.1 83.0 241.4 83.0 240.8 C 83.0 240.2 82.8 239.5 82.4 238.6 C 82.1 238.1 82.0 237.7 82.0 237.4 C 82.0 236.9 82.2 236.4 82.7 235.9 C 83.2 235.4 83.7 235.1 84.2 235.1 C 84.5 235.1 84.9 235.3 85.4 235.5 C 86.2 236.0 87.0 236.2 87.6 236.2 C 88.2 236.2 88.9 236.0 89.8 235.5 C 90.4 235.3 90.8 235.1 91.0 235.1 C 91.6 235.1 92.1 235.4 92.6 235.9 C 93.0 236.4 93.3 236.9 93.3 237.4 C 93.3 237.7 93.1 238.1 92.9 238.6 C 92.5 239.5 92.3 240.2 92.3 240.8 C 92.3 241.4 92.5 242.1 92.9 243.0 C 93.1 243.5 93.3 243.9 93.3 244.2 " fill="#FFFFFF"></path></g></g></g></g></g></g></g><image xlink:href="E38BD993643FD041F2EAEF30DC5179F5.png" width="88.00" height="32.00" transform="matrix(1.00, 0.00, -0.00, -1.00, 112.0, 255.0)"></image><text xml:space="preserve" font-family="HelveticaNeue-Light,Helvetica Neue" font-size="32.0" fill="#FFFFFF" transform="matrix(1.00, 0.00, -0.00, -1.00, 114.0, 230.7)">L</text><text xml:space="preserve" font-family="HelveticaNeue-Light,Helvetica Neue" font-size="32.0" fill="#FFFFFF" transform="matrix(1.00, 0.00, -0.00, -1.00, 131.2, 230.7)">o</text><text xml:space="preserve" font-family="HelveticaNeue-Light,Helvetica Neue" font-size="32.0" fill="#FFFFFF" transform="matrix(1.00, 0.00, -0.00, -1.00, 149.0, 230.7)">c</text><text xml:space="preserve" font-family="HelveticaNeue-Light,Helvetica Neue" font-size="32.0" fill="#FFFFFF" transform="matrix(1.00, 0.00, -0.00, -1.00, 165.6, 230.7)">k</text><text xml:space="preserve" font-family="HelveticaNeue-Light,Helvetica Neue" font-size="32.0" fill="#FFFFFF" transform="matrix(1.00, 0.00, -0.00, -1.00, 181.6, 230.7)">s</text><text xml:space="preserve" font-family="HelveticaNeue-Light,Helvetica Neue" font-size="32.0" fill="#FFFFFF" transform="matrix(1.00, 0.00, -0.00, -1.00, 197.0, 230.7)"> </text><image xlink:href="../../3320ECCF-2517-408F-AC31-6DE14F9E30F9/assets/27A5C8960DAD086C7C752DA4034A9967.png" width="12.00" height="12.00" transform="matrix(1.00, 0.00, -0.00, -1.00, 82.0, 185.0)"></image><g><clipPath id="clip0x600000ea0d80"><path d="M 82.0 173.1 L 93.3 173.1 L 93.3 184.5 L 82.0 184.5 Z M 82.0 173.1 "></path></clipPath><g clip-path="url(#clip0x600000ea0d80)"><g><g><clipPath id="clip0x600000ea1140"><path d="M 82.0 184.5 L 93.3 184.5 L 93.3 173.1 L 82.0 173.1 Z M 82.0 184.5 "></path></clipPath><g clip-path="url(#clip0x600000ea1140)"><g><clipPath id="clip0x600000ea12c0"><path d="M 78.0 166.0 L 98.0 166.0 L 98.0 192.0 L 78.0 192.0 Z M 78.0 166.0 "></path></clipPath><g clip-path="url(#clip0x600000ea12c0)"><path d="M 93.3 182.2 C 93.3 182.7 93.0 183.2 92.6 183.7 C 92.1 184.2 91.6 184.5 91.0 184.5 C 90.8 184.5 90.4 184.3 89.8 184.1 C 88.9 183.7 88.2 183.5 87.6 183.5 C 87.0 183.5 86.2 183.7 85.4 184.1 C 84.9 184.3 84.5 184.5 84.2 184.5 C 83.7 184.5 83.2 184.2 82.7 183.7 C 82.2 183.2 82.0 182.7 82.0 182.2 C 82.0 181.9 82.1 181.5 82.4 181.0 C 82.8 180.1 83.0 179.4 83.0 178.8 C 83.0 178.2 82.8 177.5 82.4 176.6 C 82.1 176.1 82.0 175.7 82.0 175.4 C 82.0 174.9 82.2 174.4 82.7 173.9 C 83.2 173.4 83.7 173.1 84.2 173.1 C 84.5 173.1 84.9 173.3 85.4 173.5 C 86.2 174.0 87.0 174.2 87.6 174.2 C 88.2 174.2 88.9 174.0 89.8 173.5 C 90.4 173.3 90.8 173.1 91.0 173.1 C 91.6 173.1 92.1 173.4 92.6 173.9 C 93.0 174.4 93.3 174.9 93.3 175.4 C 93.3 175.7 93.1 176.1 92.9 176.6 C 92.5 177.5 92.3 178.2 92.3 178.8 C 92.3 179.4 92.5 180.1 92.9 181.0 C 93.1 181.5 93.3 181.9 93.3 182.2 " fill="#FFFFFF"></path></g></g></g></g></g></g></g><image xlink:href="F6A77EB5B524B4B4D93087ECE4CE06BE.png" width="237.00" height="32.00" transform="matrix(1.00, 0.00, -0.00, -1.00, 109.0, 193.0)"></image><text xml:space="preserve" font-family="HelveticaNeue-Light,Helvetica Neue" font-size="32.0" fill="#FFFFFF" transform="matrix(1.00, 0.00, -0.00, -1.00, 114.0, 168.7)">A</text><text xml:space="preserve" font-family="HelveticaNeue-Light,Helvetica Neue" font-size="32.0" fill="#FFFFFF" transform="matrix(1.00, 0.00, -0.00, -1.00, 134.2, 168.7)">t</text><text xml:space="preserve" font-family="HelveticaNeue-Light,Helvetica Neue" font-size="32.0" fill="#FFFFFF" transform="matrix(1.00, 0.00, -0.00, -1.00, 143.6, 168.7)">o</text><text xml:space="preserve" font-family="HelveticaNeue-Light,Helvetica Neue" font-size="32.0" fill="#FFFFFF" transform="matrix(1.00, 0.00, -0.00, -1.00, 161.4, 168.7)">m</text><text xml:space="preserve" font-family="HelveticaNeue-Light,Helvetica Neue" font-size="32.0" fill="#FFFFFF" transform="matrix(1.00, 0.00, -0.00, -1.00, 188.1, 168.7)">i</text><text xml:space="preserve" font-family="HelveticaNeue-Light,Helvetica Neue" font-size="32.0" fill="#FFFFFF" transform="matrix(1.00, 0.00, -0.00, -1.00, 194.0, 168.7)">c</text><text xml:space="preserve" font-family="HelveticaNeue-Light,Helvetica Neue" font-size="32.0" fill="#FFFFFF" transform="matrix(1.00, 0.00, -0.00, -1.00, 210.6, 168.7)"> </text><text xml:space="preserve" font-family="HelveticaNeue-Light,Helvetica Neue" font-size="32.0" fill="#FFFFFF" transform="matrix(1.00, 0.00, -0.00, -1.00, 219.5, 168.7)">V</text><text xml:space="preserve" font-family="HelveticaNeue-Light,Helvetica Neue" font-size="32.0" fill="#FFFFFF" transform="matrix(1.00, 0.00, -0.00, -1.00, 236.7, 168.7)">a</text><text xml:space="preserve" font-family="HelveticaNeue-Light,Helvetica Neue" font-size="32.0" fill="#FFFFFF" transform="matrix(1.00, 0.00, -0.00, -1.00, 253.3, 168.7)">r</text><text xml:space="preserve" font-family="HelveticaNeue-Light,Helvetica Neue" font-size="32.0" fill="#FFFFFF" transform="matrix(1.00, 0.00, -0.00, -1.00, 263.4, 168.7)">i</text><text xml:space="preserve" font-family="HelveticaNeue-Light,Helvetica Neue" font-size="32.0" fill="#FFFFFF" transform="matrix(1.00, 0.00, -0.00, -1.00, 269.3, 168.7)">a</text><text xml:space="preserve" font-family="HelveticaNeue-Light,Helvetica Neue" font-size="32.0" fill="#FFFFFF" transform="matrix(1.00, 0.00, -0.00, -1.00, 285.9, 168.7)">b</text><text xml:space="preserve" font-family="HelveticaNeue-Light,Helvetica Neue" font-size="32.0" fill="#FFFFFF" transform="matrix(1.00, 0.00, -0.00, -1.00, 304.3, 168.7)">l</text><text xml:space="preserve" font-family="HelveticaNeue-Light,Helvetica Neue" font-size="32.0" fill="#FFFFFF" transform="matrix(1.00, 0.00, -0.00, -1.00, 310.2, 168.7)">e</text><text xml:space="preserve" font-family="HelveticaNeue-Light,Helvetica Neue" font-size="32.0" fill="#FFFFFF" transform="matrix(1.00, 0.00, -0.00, -1.00, 326.8, 168.7)">s</text></g></svg>